# xmcd
# Copyright (C) 1995-1998 Ti Kan
#
# Track frame offsets:
#       150
#       38402
#       68110
#       87510
#       103309
#       119105
#       148115
#       164676
#       169757
#       194106
#       206951
#
# Disc length: 3187 seconds
#
# Revision: 1
# Processed by: cddbd v1.5.2PL0 Copyright (c) Steve Scherf et al.
# Submitted via: CD-Transfer v1.0
#
DISCID=b20c710b
DTITLE=Amine Hawki 2016 - 
DYEAR=2016
DGENRE=
TTITLE0=01- Laaroussa
TTITLE1=02- Tebedel Houbi Be Houbha
TTITLE2=03- Tal Tihanek Ya Mahboubi
TTITLE3=04- Tal Tihanek Suite 2
TTITLE4=05- Tal Tihanek Suite 3
TTITLE5=06- Limane Nechetaki
TTITLE6=07- Jalsa Fi Fasse
TTITLE7=
TTITLE8=08- Belah Ya Chikhe
TTITLE9=09- Istikhbar Salite 3lik 
TTITLE10=10- Deguete El Hob- Madih
EXTD=
EXTT0=
EXTT1=
EXTT2=
EXTT3=
EXTT4=
EXTT5=
EXTT6=
EXTT7=
EXTT8=
EXTT9=
EXTT10=
PLAYORDER=
